<svg width="960" height="320" viewBox="0 0 960 320" fill="none" xmlns="http://www.w3.org/2000/svg">
  <rect width="960" height="320" rx="28" fill="#F4F6F8"/>
  <rect x="48" y="48" width="224" height="224" rx="32" fill="#FFFFFF" stroke="#D1D5DB" stroke-width="4"/>
  <rect x="97" y="97" width="24" height="24" rx="6" fill="#D7DDE4"/>
  <rect x="131" y="97" width="24" height="24" rx="6" fill="#B5E3BF"/>
  <rect x="165" y="97" width="24" height="24" rx="6" fill="#7CCF8F"/>
  <rect x="199" y="97" width="24" height="24" rx="6" fill="#3AAD61"/>
  <rect x="97" y="131" width="24" height="24" rx="6" fill="#D7DDE4"/>
  <rect x="131" y="131" width="24" height="24" rx="6" fill="#C6CED8"/>
  <rect x="165" y="131" width="24" height="24" rx="6" fill="#B5E3BF"/>
  <rect x="199" y="131" width="24" height="24" rx="6" fill="#7CCF8F"/>
  <rect x="97" y="165" width="24" height="24" rx="6" fill="#D7DDE4"/>
  <rect x="131" y="165" width="24" height="24" rx="6" fill="#D7DDE4"/>
  <rect x="165" y="165" width="24" height="24" rx="6" fill="#B5E3BF"/>
  <rect x="199" y="165" width="24" height="24" rx="6" fill="#1F7A41"/>
  <rect x="97" y="199" width="24" height="24" rx="6" fill="#D7DDE4"/>
  <rect x="131" y="199" width="24" height="24" rx="6" fill="#B5E3BF"/>
  <rect x="165" y="199" width="24" height="24" rx="6" fill="#7CCF8F"/>
  <rect x="199" y="199" width="24" height="24" rx="6" fill="#3AAD61"/>
  <path d="M120 168L144 192L205 131" stroke="#15803D" stroke-width="18" stroke-linecap="round" stroke-linejoin="round"/>
  <text x="336" y="140" fill="#15803D" font-family="Segoe UI, Tahoma, sans-serif" font-size="66" font-weight="800" dominant-baseline="middle">Consistency</text>
  <text x="336" y="198" fill="#111827" font-family="Segoe UI, Tahoma, sans-serif" font-size="58" font-weight="800" dominant-baseline="middle">Tracker</text>
</svg>
