<svg width="960" height="320" viewBox="0 0 960 320" fill="none" xmlns="http://www.w3.org/2000/svg">
  <rect width="960" height="320" rx="28" fill="#10161D"/>
  <rect x="48" y="48" width="224" height="224" rx="32" fill="#18212B" stroke="#334155" stroke-width="4"/>
  <rect x="97" y="97" width="24" height="24" rx="6" fill="#3A4656"/>
  <rect x="131" y="97" width="24" height="24" rx="6" fill="#4D8F62"/>
  <rect x="165" y="97" width="24" height="24" rx="6" fill="#5EBC7B"/>
  <rect x="199" y="97" width="24" height="24" rx="6" fill="#2FB15F"/>
  <rect x="97" y="131" width="24" height="24" rx="6" fill="#3A4656"/>
  <rect x="131" y="131" width="24" height="24" rx="6" fill="#445061"/>
  <rect x="165" y="131" width="24" height="24" rx="6" fill="#4D8F62"/>
  <rect x="199" y="131" width="24" height="24" rx="6" fill="#5EBC7B"/>
  <rect x="97" y="165" width="24" height="24" rx="6" fill="#3A4656"/>
  <rect x="131" y="165" width="24" height="24" rx="6" fill="#3A4656"/>
  <rect x="165" y="165" width="24" height="24" rx="6" fill="#4D8F62"/>
  <rect x="199" y="165" width="24" height="24" rx="6" fill="#1E8F49"/>
  <rect x="97" y="199" width="24" height="24" rx="6" fill="#3A4656"/>
  <rect x="131" y="199" width="24" height="24" rx="6" fill="#4D8F62"/>
  <rect x="165" y="199" width="24" height="24" rx="6" fill="#5EBC7B"/>
  <rect x="199" y="199" width="24" height="24" rx="6" fill="#2FB15F"/>
  <path d="M120 168L144 192L205 131" stroke="#6FE68D" stroke-width="18" stroke-linecap="round" stroke-linejoin="round"/>
  <text x="336" y="140" fill="#6FE68D" font-family="Segoe UI, Tahoma, sans-serif" font-size="66" font-weight="800" dominant-baseline="middle">Consistency</text>
  <text x="336" y="198" fill="#F3F4F6" font-family="Segoe UI, Tahoma, sans-serif" font-size="58" font-weight="800" dominant-baseline="middle">Tracker</text>
</svg>
